<?xml version="1.0" encoding="UTF-8"?>
<svg xmlns="http://www.w3.org/2000/svg" xmlns:xlink="http://www.w3.org/1999/xlink" width="3000" height="3000" viewBox="0 0 3000 3000">
<defs>
<clipPath id="clip-0">

</clipPath>
<clipPath id="clip-1">
<path clip-rule="nonzero" d="M 746.464844 1537.261719 L 741.753906 1542.519531 C 729.277344 1556.03125 717.519531 1565.519531 706.476562 1570.980469 C 698.945312 1574.75 691.191406 1578.039062 683.214844 1580.859375 C 643.300781 1592.710938 617.628906 1601.179688 606.199219 1606.25 C 589.191406 1613.230469 573.089844 1623.738281 557.886719 1637.769531 C 556.929688 1639 556.835938 1639.679688 557.605469 1639.808594 C 571.878906 1632.53125 583.652344 1627.960938 592.929688 1626.121094 C 605.324219 1623.71875 614.660156 1623.691406 620.941406 1626.011719 C 623.21875 1626.441406 626.6875 1629.261719 631.351562 1634.460938 C 632.824219 1636.71875 633.734375 1639.238281 634.085938 1642.011719 C 634.789062 1647.550781 633.25 1654.109375 629.464844 1661.679688 C 622.414062 1670.21875 615.003906 1676.75 607.226562 1681.269531 C 544.199219 1710.300781 499.429688 1736.121094 472.917969 1758.738281 L 445.5 1783.199219 C 439.597656 1789.070312 433.902344 1795.441406 428.410156 1802.308594 C 422.921875 1809.171875 417.636719 1816.53125 412.558594 1824.390625 L 405.097656 1836.558594 C 400.226562 1844.878906 395.5625 1853.769531 391.101562 1863.238281 C 391.144531 1864.058594 392.164062 1863.75 394.15625 1862.308594 C 411.726562 1844.871094 427.28125 1830.628906 440.820312 1819.570312 C 449.636719 1812.359375 457.976562 1806.25 465.835938 1801.21875 C 480.398438 1790.988281 496.617188 1784.300781 514.496094 1781.140625 C 525.191406 1779.230469 533.101562 1780.578125 538.222656 1785.179688 C 539.691406 1786.75 540.6875 1788.710938 541.214844 1791.058594 C 541.703125 1797.621094 541.433594 1802.011719 540.40625 1804.25 C 534.4375 1817.351562 527.40625 1827.980469 519.3125 1836.148438 C 515.265625 1840.238281 510.949219 1843.710938 506.371094 1846.570312 C 494.460938 1852.628906 486.992188 1855.53125 483.972656 1855.269531 C 490.585938 1855.859375 502.355469 1854.96875 519.289062 1852.589844 C 532.929688 1850.089844 545.15625 1845.859375 555.960938 1839.898438 C 569.046875 1833.03125 579.25 1823.441406 586.578125 1811.121094 C 591.832031 1804.679688 601.003906 1784.089844 614.101562 1749.351562 C 617.949219 1741.359375 622.125 1734.5 626.625 1728.769531 C 632.445312 1721.359375 650.179688 1708.988281 679.828125 1691.671875 C 682.289062 1690.191406 686.304688 1685.53125 691.867188 1677.660156 C 696.238281 1671.261719 708.285156 1640.070312 728.007812 1584.101562 C 733.183594 1571.71875 737.734375 1562.800781 741.664062 1557.339844 L 746.464844 1537.261719 "/>
</clipPath>
<clipPath id="clip-2">
<path clip-rule="nonzero" d="M 746.464844 1537.261719 L 741.753906 1542.519531 C 729.277344 1556.03125 717.519531 1565.519531 706.476562 1570.980469 C 698.945312 1574.75 691.191406 1578.039062 683.214844 1580.859375 C 643.300781 1592.710938 617.628906 1601.179688 606.199219 1606.25 C 589.191406 1613.230469 573.089844 1623.738281 557.886719 1637.769531 C 556.929688 1639 556.835938 1639.679688 557.605469 1639.808594 C 571.878906 1632.53125 583.652344 1627.960938 592.929688 1626.121094 C 605.324219 1623.71875 614.660156 1623.691406 620.941406 1626.011719 C 623.21875 1626.441406 626.6875 1629.261719 631.351562 1634.460938 C 632.824219 1636.71875 633.734375 1639.238281 634.085938 1642.011719 C 634.789062 1647.550781 633.25 1654.109375 629.464844 1661.679688 C 622.414062 1670.21875 615.003906 1676.75 607.226562 1681.269531 C 544.199219 1710.300781 499.429688 1736.121094 472.917969 1758.738281 L 445.5 1783.199219 C 439.597656 1789.070312 433.902344 1795.441406 428.410156 1802.308594 C 422.921875 1809.171875 417.636719 1816.53125 412.558594 1824.390625 L 405.097656 1836.558594 C 400.226562 1844.878906 395.5625 1853.769531 391.101562 1863.238281 C 391.144531 1864.058594 392.164062 1863.75 394.15625 1862.308594 C 411.726562 1844.871094 427.28125 1830.628906 440.820312 1819.570312 C 449.636719 1812.359375 457.976562 1806.25 465.835938 1801.21875 C 480.398438 1790.988281 496.617188 1784.300781 514.496094 1781.140625 C 525.191406 1779.230469 533.101562 1780.578125 538.222656 1785.179688 C 539.691406 1786.75 540.6875 1788.710938 541.214844 1791.058594 C 541.703125 1797.621094 541.433594 1802.011719 540.40625 1804.25 C 534.4375 1817.351562 527.40625 1827.980469 519.3125 1836.148438 C 515.265625 1840.238281 510.949219 1843.710938 506.371094 1846.570312 C 494.460938 1852.628906 486.992188 1855.53125 483.972656 1855.269531 C 490.585938 1855.859375 502.355469 1854.96875 519.289062 1852.589844 C 532.929688 1850.089844 545.15625 1845.859375 555.960938 1839.898438 C 569.046875 1833.03125 579.25 1823.441406 586.578125 1811.121094 C 591.832031 1804.679688 601.003906 1784.089844 614.101562 1749.351562 C 617.949219 1741.359375 622.125 1734.5 626.625 1728.769531 C 632.445312 1721.359375 650.179688 1708.988281 679.828125 1691.671875 C 682.289062 1690.191406 686.304688 1685.53125 691.867188 1677.660156 C 696.238281 1671.261719 708.285156 1640.070312 728.007812 1584.101562 C 733.183594 1571.71875 737.734375 1562.800781 741.664062 1557.339844 L 746.464844 1537.261719 "/>
</clipPath>
<linearGradient id="linear-pattern-0" gradientUnits="userSpaceOnUse" x1="-428.095028" y1="1165.9609" x2="-859.307876" y2="1640.415731" gradientTransform="matrix(0.75, 0, 0, 0.75, 1095, 687.75)">
<stop offset="0" stop-color="rgb(38.943481%, 0%, 0%)" stop-opacity="1"/>
<stop offset="0.00390625" stop-color="rgb(39.163208%, 0%, 0%)" stop-opacity="1"/>
<stop offset="0.0078125" stop-color="rgb(39.382935%, 0%, 0%)" stop-opacity="1"/>
<stop offset="0.0117188" stop-color="rgb(39.601135%, 0%, 0%)" stop-opacity="1"/>
<stop offset="0.015625" stop-color="rgb(39.820862%, 0%, 0%)" stop-opacity="1"/>
<stop offset="0.0195313" stop-color="rgb(40.039062%, 0%, 0%)" stop-opacity="1"/>
<stop offset="0.0234375" stop-color="rgb(40.258789%, 0%, 0%)" stop-opacity="1"/>
<stop offset="0.0273438" stop-color="rgb(40.47699%, 0%, 0%)" stop-opacity="1"/>
<stop offset="0.03125" stop-color="rgb(40.696716%, 0%, 0%)" stop-opacity="1"/>
<stop offset="0.0351563" stop-color="rgb(40.916443%, 0%, 0%)" stop-opacity="1"/>
<stop offset="0.0390625" stop-color="rgb(41.136169%, 0%, 0%)" stop-opacity="1"/>
<stop offset="0.0429688" stop-color="rgb(41.35437%, 0%, 0%)" stop-opacity="1"/>
<stop offset="0.046875" stop-color="rgb(41.574097%, 0%, 0%)" stop-opacity="1"/>
<stop offset="0.0507813" stop-color="rgb(41.792297%, 0%, 0%)" stop-opacity="1"/>
<stop offset="0.0546875" stop-color="rgb(42.012024%, 0%, 0%)" stop-opacity="1"/>
<stop offset="0.0585938" stop-color="rgb(42.23175%, 0%, 0%)" stop-opacity="1"/>
<stop offset="0.0625" stop-color="rgb(42.451477%, 0%, 0%)" stop-opacity="1"/>
<stop offset="0.0664062" stop-color="rgb(42.669678%, 0%, 0%)" stop-opacity="1"/>
<stop offset="0.0703125" stop-color="rgb(42.889404%, 0%, 0%)" stop-opacity="1"/>
<stop offset="0.0742187" stop-color="rgb(43.107605%, 0%, 0%)" stop-opacity="1"/>
<stop offset="0.078125" stop-color="rgb(43.327332%, 0%, 0%)" stop-opacity="1"/>
<stop offset="0.0820312" stop-color="rgb(43.545532%, 0%, 0%)" stop-opacity="1"/>
<stop offset="0.0859375" stop-color="rgb(43.765259%, 0%, 0%)" stop-opacity="1"/>
<stop offset="0.0898438" stop-color="rgb(43.984985%, 0%, 0%)" stop-opacity="1"/>
<stop offset="0.09375" stop-color="rgb(44.204712%, 0%, 0%)" stop-opacity="1"/>
<stop offset="0.0976563" stop-color="rgb(44.422913%, 0%, 0%)" stop-opacity="1"/>
<stop offset="0.101563" stop-color="rgb(44.642639%, 0%, 0%)" stop-opacity="1"/>
<stop offset="0.105469" stop-color="rgb(44.86084%, 0%, 0%)" stop-opacity="1"/>
<stop offset="0.109375" stop-color="rgb(45.080566%, 0%, 0%)" stop-opacity="1"/>
<stop offset="0.113281" stop-color="rgb(45.300293%, 0%, 0%)" stop-opacity="1"/>
<stop offset="0.117188" stop-color="rgb(45.52002%, 0%, 0%)" stop-opacity="1"/>
<stop offset="0.121094" stop-color="rgb(45.73822%, 0%, 0%)" stop-opacity="1"/>
<stop offset="0.125" stop-color="rgb(45.957947%, 0%, 0%)" stop-opacity="1"/>
<stop offset="0.128906" stop-color="rgb(46.176147%, 0%, 0%)" stop-opacity="1"/>
<stop offset="0.132813" stop-color="rgb(46.395874%, 0%, 0%)" stop-opacity="1"/>
<stop offset="0.136719" stop-color="rgb(46.615601%, 0%, 0%)" stop-opacity="1"/>
<stop offset="0.140625" stop-color="rgb(46.835327%, 0%, 0%)" stop-opacity="1"/>
<stop offset="0.144531" stop-color="rgb(47.053528%, 0%, 0%)" stop-opacity="1"/>
<stop offset="0.148438" stop-color="rgb(47.273254%, 0%, 0%)" stop-opacity="1"/>
<stop offset="0.152344" stop-color="rgb(47.491455%, 0%, 0%)" stop-opacity="1"/>
<stop offset="0.15625" stop-color="rgb(47.711182%, 0%, 0%)" stop-opacity="1"/>
<stop offset="0.160156" stop-color="rgb(47.929382%, 0%, 0%)" stop-opacity="1"/>
<stop offset="0.164063" stop-color="rgb(48.149109%, 0%, 0%)" stop-opacity="1"/>
<stop offset="0.167969" stop-color="rgb(48.368835%, 0%, 0%)" stop-opacity="1"/>
<stop offset="0.171875" stop-color="rgb(48.588562%, 0%, 0%)" stop-opacity="1"/>
<stop offset="0.175781" stop-color="rgb(48.806763%, 0%, 0%)" stop-opacity="1"/>
<stop offset="0.179688" stop-color="rgb(49.026489%, 0%, 0%)" stop-opacity="1"/>
<stop offset="0.183594" stop-color="rgb(49.24469%, 0%, 0%)" stop-opacity="1"/>
<stop offset="0.1875" stop-color="rgb(49.464417%, 0%, 0%)" stop-opacity="1"/>
<stop offset="0.191406" stop-color="rgb(49.684143%, 0%, 0%)" stop-opacity="1"/>
<stop offset="0.195313" stop-color="rgb(49.90387%, 0%, 0%)" stop-opacity="1"/>
<stop offset="0.199219" stop-color="rgb(50.12207%, 0%, 0%)" stop-opacity="1"/>
<stop offset="0.203125" stop-color="rgb(50.341797%, 0%, 0%)" stop-opacity="1"/>
<stop offset="0.207031" stop-color="rgb(50.559998%, 0%, 0%)" stop-opacity="1"/>
<stop offset="0.210938" stop-color="rgb(50.779724%, 0%, 0%)" stop-opacity="1"/>
<stop offset="0.214844" stop-color="rgb(50.999451%, 0%, 0%)" stop-opacity="1"/>
<stop offset="0.21875" stop-color="rgb(51.219177%, 0%, 0%)" stop-opacity="1"/>
<stop offset="0.222656" stop-color="rgb(51.437378%, 0%, 0%)" stop-opacity="1"/>
<stop offset="0.226563" stop-color="rgb(51.657104%, 0%, 0%)" stop-opacity="1"/>
<stop offset="0.230469" stop-color="rgb(51.875305%, 0%, 0%)" stop-opacity="1"/>
<stop offset="0.234375" stop-color="rgb(52.095032%, 0%, 0%)" stop-opacity="1"/>
<stop offset="0.238281" stop-color="rgb(52.313232%, 0%, 0%)" stop-opacity="1"/>
<stop offset="0.242188" stop-color="rgb(52.532959%, 0%, 0%)" stop-opacity="1"/>
<stop offset="0.246094" stop-color="rgb(52.752686%, 0%, 0%)" stop-opacity="1"/>
<stop offset="0.25" stop-color="rgb(52.972412%, 0%, 0%)" stop-opacity="1"/>
<stop offset="0.253906" stop-color="rgb(53.190613%, 0%, 0%)" stop-opacity="1"/>
<stop offset="0.257813" stop-color="rgb(53.410339%, 0%, 0%)" stop-opacity="1"/>
<stop offset="0.261719" stop-color="rgb(53.62854%, 0%, 0%)" stop-opacity="1"/>
<stop offset="0.265625" stop-color="rgb(53.848267%, 0%, 0%)" stop-opacity="1"/>
<stop offset="0.269531" stop-color="rgb(54.067993%, 0%, 0%)" stop-opacity="1"/>
<stop offset="0.273438" stop-color="rgb(54.28772%, 0%, 0%)" stop-opacity="1"/>
<stop offset="0.277344" stop-color="rgb(54.50592%, 0%, 0%)" stop-opacity="1"/>
<stop offset="0.28125" stop-color="rgb(54.725647%, 0%, 0%)" stop-opacity="1"/>
<stop offset="0.285156" stop-color="rgb(54.943848%, 0%, 0%)" stop-opacity="1"/>
<stop offset="0.289063" stop-color="rgb(55.163574%, 0%, 0%)" stop-opacity="1"/>
<stop offset="0.292969" stop-color="rgb(55.381775%, 0%, 0%)" stop-opacity="1"/>
<stop offset="0.296875" stop-color="rgb(55.601501%, 0%, 0%)" stop-opacity="1"/>
<stop offset="0.300781" stop-color="rgb(55.821228%, 0%, 0%)" stop-opacity="1"/>
<stop offset="0.304688" stop-color="rgb(56.040955%, 0%, 0%)" stop-opacity="1"/>
<stop offset="0.308594" stop-color="rgb(56.259155%, 0%, 0%)" stop-opacity="1"/>
<stop offset="0.3125" stop-color="rgb(56.478882%, 0%, 0%)" stop-opacity="1"/>
<stop offset="0.316406" stop-color="rgb(56.697083%, 0%, 0%)" stop-opacity="1"/>
<stop offset="0.320313" stop-color="rgb(56.916809%, 0%, 0%)" stop-opacity="1"/>
<stop offset="0.324219" stop-color="rgb(57.136536%, 0%, 0%)" stop-opacity="1"/>
<stop offset="0.328125" stop-color="rgb(57.356262%, 0%, 0%)" stop-opacity="1"/>
<stop offset="0.332031" stop-color="rgb(57.574463%, 0%, 0%)" stop-opacity="1"/>
<stop offset="0.335938" stop-color="rgb(57.794189%, 0%, 0%)" stop-opacity="1"/>
<stop offset="0.339844" stop-color="rgb(58.01239%, 0%, 0%)" stop-opacity="1"/>
<stop offset="0.34375" stop-color="rgb(58.232117%, 0%, 0%)" stop-opacity="1"/>
<stop offset="0.347656" stop-color="rgb(58.451843%, 0%, 0%)" stop-opacity="1"/>
<stop offset="0.351563" stop-color="rgb(58.67157%, 0%, 0%)" stop-opacity="1"/>
<stop offset="0.355469" stop-color="rgb(58.889771%, 0%, 0%)" stop-opacity="1"/>
<stop offset="0.359375" stop-color="rgb(59.109497%, 0%, 0%)" stop-opacity="1"/>
<stop offset="0.363281" stop-color="rgb(59.327698%, 0%, 0%)" stop-opacity="1"/>
<stop offset="0.367188" stop-color="rgb(59.547424%, 0%, 0%)" stop-opacity="1"/>
<stop offset="0.371094" stop-color="rgb(59.765625%, 0%, 0%)" stop-opacity="1"/>
<stop offset="0.375" stop-color="rgb(59.985352%, 0%, 0%)" stop-opacity="1"/>
<stop offset="0.378906" stop-color="rgb(60.205078%, 0%, 0%)" stop-opacity="1"/>
<stop offset="0.382813" stop-color="rgb(60.424805%, 0%, 0%)" stop-opacity="1"/>
<stop offset="0.386719" stop-color="rgb(60.643005%, 0%, 0%)" stop-opacity="1"/>
<stop offset="0.390625" stop-color="rgb(60.862732%, 0%, 0%)" stop-opacity="1"/>
<stop offset="0.394531" stop-color="rgb(61.080933%, 0%, 0%)" stop-opacity="1"/>
<stop offset="0.398438" stop-color="rgb(61.300659%, 0%, 0%)" stop-opacity="1"/>
<stop offset="0.402344" stop-color="rgb(61.520386%, 0%, 0%)" stop-opacity="1"/>
<stop offset="0.40625" stop-color="rgb(61.740112%, 0%, 0%)" stop-opacity="1"/>
<stop offset="0.410156" stop-color="rgb(61.958313%, 0%, 0%)" stop-opacity="1"/>
<stop offset="0.414063" stop-color="rgb(62.17804%, 0%, 0%)" stop-opacity="1"/>
<stop offset="0.417969" stop-color="rgb(62.39624%, 0%, 0%)" stop-opacity="1"/>
<stop offset="0.421875" stop-color="rgb(62.615967%, 0%, 0%)" stop-opacity="1"/>
<stop offset="0.425781" stop-color="rgb(62.835693%, 0%, 0%)" stop-opacity="1"/>
<stop offset="0.429688" stop-color="rgb(63.05542%, 0%, 0%)" stop-opacity="1"/>
<stop offset="0.433594" stop-color="rgb(63.273621%, 0%, 0%)" stop-opacity="1"/>
<stop offset="0.4375" stop-color="rgb(63.493347%, 0%, 0%)" stop-opacity="1"/>
<stop offset="0.441406" stop-color="rgb(63.711548%, 0%, 0%)" stop-opacity="1"/>
<stop offset="0.445312" stop-color="rgb(63.931274%, 0%, 0%)" stop-opacity="1"/>
<stop offset="0.449219" stop-color="rgb(64.149475%, 0%, 0%)" stop-opacity="1"/>
<stop offset="0.453125" stop-color="rgb(64.369202%, 0%, 0%)" stop-opacity="1"/>
<stop offset="0.457031" stop-color="rgb(64.588928%, 0%, 0%)" stop-opacity="1"/>
<stop offset="0.460937" stop-color="rgb(64.808655%, 0%, 0%)" stop-opacity="1"/>
<stop offset="0.464844" stop-color="rgb(65.026855%, 0%, 0%)" stop-opacity="1"/>
<stop offset="0.46875" stop-color="rgb(65.246582%, 0%, 0%)" stop-opacity="1"/>
<stop offset="0.472656" stop-color="rgb(65.464783%, 0%, 0%)" stop-opacity="1"/>
<stop offset="0.476562" stop-color="rgb(65.684509%, 0%, 0%)" stop-opacity="1"/>
<stop offset="0.480469" stop-color="rgb(65.904236%, 0%, 0%)" stop-opacity="1"/>
<stop offset="0.484375" stop-color="rgb(66.123962%, 0%, 0%)" stop-opacity="1"/>
<stop offset="0.488281" stop-color="rgb(66.342163%, 0%, 0%)" stop-opacity="1"/>
<stop offset="0.492188" stop-color="rgb(66.56189%, 0%, 0%)" stop-opacity="1"/>
<stop offset="0.496094" stop-color="rgb(66.78009%, 0%, 0%)" stop-opacity="1"/>
<stop offset="0.5" stop-color="rgb(66.999817%, 0%, 0%)" stop-opacity="1"/>
<stop offset="0.503906" stop-color="rgb(67.218018%, 0%, 0%)" stop-opacity="1"/>
<stop offset="0.507813" stop-color="rgb(67.437744%, 0%, 0%)" stop-opacity="1"/>
<stop offset="0.511719" stop-color="rgb(67.657471%, 0%, 0%)" stop-opacity="1"/>
<stop offset="0.515625" stop-color="rgb(67.877197%, 0%, 0%)" stop-opacity="1"/>
<stop offset="0.519531" stop-color="rgb(68.095398%, 0%, 0%)" stop-opacity="1"/>
<stop offset="0.523438" stop-color="rgb(68.315125%, 0%, 0%)" stop-opacity="1"/>
<stop offset="0.527344" stop-color="rgb(68.533325%, 0%, 0%)" stop-opacity="1"/>
<stop offset="0.53125" stop-color="rgb(68.753052%, 0%, 0%)" stop-opacity="1"/>
<stop offset="0.535156" stop-color="rgb(68.972778%, 0%, 0%)" stop-opacity="1"/>
<stop offset="0.539063" stop-color="rgb(69.192505%, 0%, 0%)" stop-opacity="1"/>
<stop offset="0.542969" stop-color="rgb(69.410706%, 0%, 0%)" stop-opacity="1"/>
<stop offset="0.546875" stop-color="rgb(69.630432%, 0%, 0%)" stop-opacity="1"/>
<stop offset="0.550781" stop-color="rgb(69.848633%, 0%, 0%)" stop-opacity="1"/>
<stop offset="0.554688" stop-color="rgb(70.068359%, 0%, 0%)" stop-opacity="1"/>
<stop offset="0.558594" stop-color="rgb(70.288086%, 0%, 0%)" stop-opacity="1"/>
<stop offset="0.5625" stop-color="rgb(70.507812%, 0%, 0%)" stop-opacity="1"/>
<stop offset="0.566406" stop-color="rgb(70.726013%, 0%, 0%)" stop-opacity="1"/>
<stop offset="0.570313" stop-color="rgb(70.94574%, 0%, 0%)" stop-opacity="1"/>
<stop offset="0.574219" stop-color="rgb(71.16394%, 0%, 0%)" stop-opacity="1"/>
<stop offset="0.578125" stop-color="rgb(71.383667%, 0%, 0%)" stop-opacity="1"/>
<stop offset="0.582031" stop-color="rgb(71.601868%, 0%, 0%)" stop-opacity="1"/>
<stop offset="0.585938" stop-color="rgb(71.821594%, 0%, 0%)" stop-opacity="1"/>
<stop offset="0.589844" stop-color="rgb(72.041321%, 0%, 0%)" stop-opacity="1"/>
<stop offset="0.59375" stop-color="rgb(72.261047%, 0%, 0%)" stop-opacity="1"/>
<stop offset="0.597656" stop-color="rgb(72.479248%, 0%, 0%)" stop-opacity="1"/>
<stop offset="0.601563" stop-color="rgb(72.698975%, 0%, 0%)" stop-opacity="1"/>
<stop offset="0.605469" stop-color="rgb(72.917175%, 0%, 0%)" stop-opacity="1"/>
<stop offset="0.609375" stop-color="rgb(73.136902%, 0%, 0%)" stop-opacity="1"/>
<stop offset="0.613281" stop-color="rgb(73.356628%, 0%, 0%)" stop-opacity="1"/>
<stop offset="0.617188" stop-color="rgb(73.576355%, 0%, 0%)" stop-opacity="1"/>
<stop offset="0.621094" stop-color="rgb(73.794556%, 0%, 0%)" stop-opacity="1"/>
<stop offset="0.625" stop-color="rgb(74.014282%, 0%, 0%)" stop-opacity="1"/>
<stop offset="0.628906" stop-color="rgb(74.232483%, 0%, 0%)" stop-opacity="1"/>
<stop offset="0.632813" stop-color="rgb(74.452209%, 0%, 0%)" stop-opacity="1"/>
<stop offset="0.636719" stop-color="rgb(74.671936%, 0%, 0%)" stop-opacity="1"/>
<stop offset="0.640625" stop-color="rgb(74.891663%, 0%, 0%)" stop-opacity="1"/>
<stop offset="0.644531" stop-color="rgb(75.109863%, 0%, 0%)" stop-opacity="1"/>
<stop offset="0.648438" stop-color="rgb(75.32959%, 0%, 0%)" stop-opacity="1"/>
<stop offset="0.652344" stop-color="rgb(75.547791%, 0%, 0%)" stop-opacity="1"/>
<stop offset="0.65625" stop-color="rgb(75.767517%, 0%, 0%)" stop-opacity="1"/>
<stop offset="0.660156" stop-color="rgb(75.985718%, 0%, 0%)" stop-opacity="1"/>
<stop offset="0.664062" stop-color="rgb(76.205444%, 0%, 0%)" stop-opacity="1"/>
<stop offset="0.667969" stop-color="rgb(76.425171%, 0%, 0%)" stop-opacity="1"/>
<stop offset="0.671875" stop-color="rgb(76.644897%, 0%, 0%)" stop-opacity="1"/>
<stop offset="0.675781" stop-color="rgb(76.863098%, 0%, 0%)" stop-opacity="1"/>
<stop offset="0.679688" stop-color="rgb(77.082825%, 0%, 0%)" stop-opacity="1"/>
<stop offset="0.683594" stop-color="rgb(77.301025%, 0%, 0%)" stop-opacity="1"/>
<stop offset="0.6875" stop-color="rgb(77.520752%, 0%, 0%)" stop-opacity="1"/>
<stop offset="0.691406" stop-color="rgb(77.740479%, 0%, 0%)" stop-opacity="1"/>
<stop offset="0.695312" stop-color="rgb(77.960205%, 0%, 0%)" stop-opacity="1"/>
<stop offset="0.699219" stop-color="rgb(78.178406%, 0%, 0%)" stop-opacity="1"/>
<stop offset="0.703125" stop-color="rgb(78.398132%, 0%, 0%)" stop-opacity="1"/>
<stop offset="0.707031" stop-color="rgb(78.616333%, 0%, 0%)" stop-opacity="1"/>
<stop offset="0.710938" stop-color="rgb(78.83606%, 0%, 0%)" stop-opacity="1"/>
<stop offset="0.714844" stop-color="rgb(79.05426%, 0%, 0%)" stop-opacity="1"/>
<stop offset="0.71875" stop-color="rgb(79.273987%, 0%, 0%)" stop-opacity="1"/>
<stop offset="0.722656" stop-color="rgb(79.493713%, 0%, 0%)" stop-opacity="1"/>
<stop offset="0.726562" stop-color="rgb(79.71344%, 0%, 0%)" stop-opacity="1"/>
<stop offset="0.730469" stop-color="rgb(79.931641%, 0%, 0%)" stop-opacity="1"/>
<stop offset="0.734375" stop-color="rgb(80.151367%, 0%, 0%)" stop-opacity="1"/>
<stop offset="0.738281" stop-color="rgb(80.369568%, 0%, 0%)" stop-opacity="1"/>
<stop offset="0.742188" stop-color="rgb(80.589294%, 0%, 0%)" stop-opacity="1"/>
<stop offset="0.746094" stop-color="rgb(80.809021%, 0%, 0%)" stop-opacity="1"/>
<stop offset="0.75" stop-color="rgb(81.028748%, 0%, 0%)" stop-opacity="1"/>
<stop offset="0.753906" stop-color="rgb(81.246948%, 0%, 0%)" stop-opacity="1"/>
<stop offset="0.757813" stop-color="rgb(81.466675%, 0%, 0%)" stop-opacity="1"/>
<stop offset="0.761719" stop-color="rgb(81.684875%, 0%, 0%)" stop-opacity="1"/>
<stop offset="0.765625" stop-color="rgb(81.904602%, 0%, 0%)" stop-opacity="1"/>
<stop offset="0.769531" stop-color="rgb(82.124329%, 0%, 0%)" stop-opacity="1"/>
<stop offset="0.773438" stop-color="rgb(82.344055%, 0%, 0%)" stop-opacity="1"/>
<stop offset="0.777344" stop-color="rgb(82.562256%, 0%, 0%)" stop-opacity="1"/>
<stop offset="0.78125" stop-color="rgb(82.781982%, 0%, 0%)" stop-opacity="1"/>
<stop offset="0.785156" stop-color="rgb(83.000183%, 0%, 0%)" stop-opacity="1"/>
<stop offset="0.789063" stop-color="rgb(83.21991%, 0%, 0%)" stop-opacity="1"/>
<stop offset="0.792969" stop-color="rgb(83.43811%, 0%, 0%)" stop-opacity="1"/>
<stop offset="0.796875" stop-color="rgb(83.657837%, 0%, 0%)" stop-opacity="1"/>
<stop offset="0.800781" stop-color="rgb(83.877563%, 0%, 0%)" stop-opacity="1"/>
<stop offset="0.804688" stop-color="rgb(84.09729%, 0%, 0%)" stop-opacity="1"/>
<stop offset="0.808594" stop-color="rgb(84.315491%, 0%, 0%)" stop-opacity="1"/>
<stop offset="0.8125" stop-color="rgb(84.535217%, 0%, 0%)" stop-opacity="1"/>
<stop offset="0.816406" stop-color="rgb(84.753418%, 0%, 0%)" stop-opacity="1"/>
<stop offset="0.820313" stop-color="rgb(84.973145%, 0%, 0%)" stop-opacity="1"/>
<stop offset="0.824219" stop-color="rgb(85.192871%, 0%, 0%)" stop-opacity="1"/>
<stop offset="0.828125" stop-color="rgb(85.412598%, 0%, 0%)" stop-opacity="1"/>
<stop offset="0.832031" stop-color="rgb(85.630798%, 0%, 0%)" stop-opacity="1"/>
<stop offset="0.835938" stop-color="rgb(85.850525%, 0%, 0%)" stop-opacity="1"/>
<stop offset="0.839844" stop-color="rgb(86.068726%, 0%, 0%)" stop-opacity="1"/>
<stop offset="0.84375" stop-color="rgb(86.288452%, 0%, 0%)" stop-opacity="1"/>
<stop offset="0.847656" stop-color="rgb(86.506653%, 0%, 0%)" stop-opacity="1"/>
<stop offset="0.851563" stop-color="rgb(86.726379%, 0%, 0%)" stop-opacity="1"/>
<stop offset="0.855469" stop-color="rgb(86.946106%, 0%, 0%)" stop-opacity="1"/>
<stop offset="0.859375" stop-color="rgb(87.165833%, 0%, 0%)" stop-opacity="1"/>
<stop offset="0.863281" stop-color="rgb(87.384033%, 0%, 0%)" stop-opacity="1"/>
<stop offset="0.867188" stop-color="rgb(87.60376%, 0%, 0%)" stop-opacity="1"/>
<stop offset="0.871094" stop-color="rgb(87.82196%, 0%, 0%)" stop-opacity="1"/>
<stop offset="0.875" stop-color="rgb(88.041687%, 0%, 0%)" stop-opacity="1"/>
<stop offset="0.878906" stop-color="rgb(88.261414%, 0%, 0%)" stop-opacity="1"/>
<stop offset="0.882813" stop-color="rgb(88.48114%, 0%, 0%)" stop-opacity="1"/>
<stop offset="0.886719" stop-color="rgb(88.699341%, 0%, 0%)" stop-opacity="1"/>
<stop offset="0.890625" stop-color="rgb(88.919067%, 0%, 0%)" stop-opacity="1"/>
<stop offset="0.894531" stop-color="rgb(89.137268%, 0%, 0%)" stop-opacity="1"/>
<stop offset="0.898438" stop-color="rgb(89.356995%, 0%, 0%)" stop-opacity="1"/>
<stop offset="0.902344" stop-color="rgb(89.576721%, 0%, 0%)" stop-opacity="1"/>
<stop offset="0.90625" stop-color="rgb(89.796448%, 0%, 0%)" stop-opacity="1"/>
<stop offset="0.910156" stop-color="rgb(90.014648%, 0%, 0%)" stop-opacity="1"/>
<stop offset="0.914062" stop-color="rgb(90.234375%, 0%, 0%)" stop-opacity="1"/>
<stop offset="0.917969" stop-color="rgb(90.452576%, 0%, 0%)" stop-opacity="1"/>
<stop offset="0.921875" stop-color="rgb(90.672302%, 0%, 0%)" stop-opacity="1"/>
<stop offset="0.925781" stop-color="rgb(90.890503%, 0%, 0%)" stop-opacity="1"/>
<stop offset="0.929687" stop-color="rgb(91.110229%, 0%, 0%)" stop-opacity="1"/>
<stop offset="0.933594" stop-color="rgb(91.329956%, 0%, 0%)" stop-opacity="1"/>
<stop offset="0.9375" stop-color="rgb(91.549683%, 0%, 0%)" stop-opacity="1"/>
<stop offset="0.941406" stop-color="rgb(91.767883%, 0%, 0%)" stop-opacity="1"/>
<stop offset="0.945312" stop-color="rgb(91.98761%, 0%, 0%)" stop-opacity="1"/>
<stop offset="0.949219" stop-color="rgb(92.205811%, 0%, 0%)" stop-opacity="1"/>
<stop offset="0.953125" stop-color="rgb(92.425537%, 0%, 0%)" stop-opacity="1"/>
<stop offset="0.957031" stop-color="rgb(92.645264%, 0%, 0%)" stop-opacity="1"/>
<stop offset="0.960937" stop-color="rgb(92.86499%, 0%, 0%)" stop-opacity="1"/>
<stop offset="0.964844" stop-color="rgb(93.083191%, 0%, 0%)" stop-opacity="1"/>
<stop offset="0.96875" stop-color="rgb(93.302917%, 0%, 0%)" stop-opacity="1"/>
<stop offset="0.972656" stop-color="rgb(93.521118%, 0%, 0%)" stop-opacity="1"/>
<stop offset="0.976562" stop-color="rgb(93.740845%, 0%, 0%)" stop-opacity="1"/>
<stop offset="0.980469" stop-color="rgb(93.960571%, 0%, 0%)" stop-opacity="1"/>
<stop offset="0.984375" stop-color="rgb(94.180298%, 0%, 0%)" stop-opacity="1"/>
<stop offset="0.988281" stop-color="rgb(94.398499%, 0%, 0%)" stop-opacity="1"/>
<stop offset="0.992188" stop-color="rgb(94.618225%, 0%, 0%)" stop-opacity="1"/>
<stop offset="0.996094" stop-color="rgb(94.836426%, 0%, 0%)" stop-opacity="1"/>
<stop offset="1" stop-color="rgb(95.056152%, 0%, 0%)" stop-opacity="1"/>
</linearGradient>
</defs>

<path fill-rule="nonzero" fill="#FFCC00" fill-opacity="1" d="M 864.722656 1340.21875 L 864.765625 1340.230469 C 864.867188 1340.28125 864.867188 1340.539062 864.765625 1340.988281 C 864.203125 1343.089844 863.804688 1344.488281 863.566406 1345.191406 C 860.414062 1354.660156 857.863281 1362.171875 855.917969 1367.730469 C 852.105469 1378.609375 850.015625 1384.050781 849.648438 1384.050781 C 849.632812 1384.050781 849.621094 1384.039062 849.609375 1384.019531 C 849.632812 1384.410156 847.855469 1386.089844 844.28125 1389.039062 L 824.15625 1403.261719 C 823.851562 1401.910156 824.140625 1397.640625 825.019531 1390.460938 C 825.476562 1387.410156 825.910156 1385.648438 826.320312 1385.191406 C 826.945312 1384.199219 827.734375 1383.25 828.695312 1382.328125 C 838.40625 1374.300781 844.601562 1368.550781 847.277344 1365.089844 C 852.171875 1359.460938 857.988281 1351.171875 864.722656 1340.21875 Z M 2729.671875 198.640625 L 2729.25 198.679688 C 2622.109375 227.359375 2521.46875 260.660156 2427.339844 298.558594 L 2288.960938 358.949219 C 2199.269531 401.550781 2114.699219 448.820312 2035.269531 500.75 C 1878.589844 600.910156 1738.039062 727.179688 1613.609375 879.570312 C 1597.210938 908.03125 1590.21875 926.089844 1592.621094 933.75 C 1699.511719 1039.460938 1766.589844 1133.691406 1793.859375 1216.429688 C 1835.03125 1331.859375 1847.429688 1447.320312 1831.050781 1562.808594 C 1821.5 1600.679688 1807.929688 1623.910156 1790.328125 1632.480469 C 1768.941406 1640.589844 1698.351562 1652.550781 1578.570312 1668.351562 C 1513.691406 1807.460938 1445.480469 1893.621094 1373.941406 1926.851562 C 1471.390625 1884.019531 1557.148438 1856.230469 1631.21875 1843.488281 C 1637.089844 1843.109375 1642.859375 1842.941406 1648.539062 1842.980469 C 1700.339844 1843.300781 1743.679688 1860.710938 1778.578125 1895.21875 C 1773.988281 1855.679688 1761.78125 1811.761719 1741.949219 1763.449219 L 1741.96875 1763.449219 C 1766.390625 1799.359375 1785.96875 1840.320312 1800.710938 1886.328125 C 1831 1831.140625 1874.179688 1788.539062 1930.230469 1758.539062 C 1968.078125 1745.648438 2019.730469 1739.410156 2085.191406 1739.820312 C 2118.078125 1740.019531 2154.460938 1741.910156 2194.328125 1745.46875 C 2119.339844 1653.320312 2038.730469 1581.578125 1952.5 1530.230469 L 1952.511719 1530.230469 C 2029.421875 1560.480469 2117.660156 1623.371094 2217.230469 1718.890625 C 2165.089844 1579.378906 2153.699219 1467.058594 2183.039062 1381.921875 C 2197.71875 1327.050781 2219.078125 1282.820312 2247.109375 1249.230469 C 2260.140625 1233.828125 2303.449219 1202.320312 2377.058594 1154.691406 C 2361.710938 1134.980469 2322.511719 1113.359375 2259.460938 1089.839844 C 2225.589844 1073.269531 2109.511719 1040.890625 1911.21875 992.71875 L 1911.230469 992.71875 C 2074.75 998.378906 2234.640625 1038.558594 2390.890625 1113.25 C 2350.359375 955 2358.46875 799.328125 2415.230469 646.21875 C 2436.21875 591.289062 2468.050781 532.921875 2510.699219 471.109375 C 2565.761719 391.210938 2639.710938 301.960938 2732.550781 203.390625 C 2732.269531 200.609375 2731.308594 199.019531 2729.671875 198.640625 Z M 1022.710938 1064.398438 L 1022.671875 1064.398438 C 1011.519531 1082.398438 996.015625 1102.789062 976.152344 1125.589844 L 876.65625 1227.148438 C 854.855469 1260.480469 845.464844 1283.519531 848.480469 1296.261719 L 820.199219 1342.691406 C 813.296875 1350.058594 800.09375 1360.46875 780.585938 1373.941406 C 765.347656 1397.929688 755.792969 1411.558594 751.917969 1414.828125 C 750.082031 1418.578125 719.707031 1436.558594 660.785156 1468.761719 C 655.261719 1482 657.710938 1496.769531 668.144531 1513.070312 C 680.15625 1529.050781 696.335938 1542.988281 716.679688 1554.898438 C 748.003906 1514.039062 781.261719 1493.710938 816.449219 1493.929688 C 819.027344 1493.949219 821.613281 1494.070312 824.210938 1494.308594 C 804.894531 1504.75 785.769531 1530.640625 766.84375 1571.988281 C 767.453125 1573.578125 759.105469 1574.320312 741.808594 1574.210938 C 741.492188 1574.210938 741.175781 1574.210938 740.855469 1574.199219 C 746.640625 1588.519531 761.027344 1602.019531 784.011719 1614.71875 C 794.957031 1594.339844 805.71875 1580.261719 816.289062 1572.480469 C 828.914062 1563.160156 847.316406 1556.25 871.496094 1551.761719 C 880.324219 1526.421875 905.15625 1506.300781 945.992188 1491.390625 C 952.316406 1470.980469 960.003906 1455.148438 969.046875 1443.890625 C 981.792969 1441.46875 995.035156 1440.300781 1008.769531 1440.390625 C 1021.578125 1440.460938 1034.820312 1441.640625 1048.5 1443.910156 C 1053.429688 1434.558594 1052.378906 1424.359375 1045.328125 1413.308594 C 1065.320312 1412.589844 1083.121094 1412.28125 1098.71875 1412.378906 C 1129.898438 1412.570312 1152.320312 1414.390625 1165.988281 1417.851562 C 1176.859375 1420.070312 1187.339844 1422.660156 1197.449219 1425.609375 L 1197.441406 1425.609375 C 1249 1470 1279.21875 1521.308594 1288.128906 1579.558594 C 1293.699219 1624.679688 1294.238281 1657.96875 1289.738281 1679.410156 C 1285.75 1697.238281 1280.828125 1713.519531 1274.988281 1728.261719 C 1236.289062 1812.660156 1214.441406 1863.628906 1209.449219 1881.179688 C 1195.261719 1924.621094 1187.519531 1973.28125 1186.230469 2027.167969 C 1186.058594 2071.699219 1192.730469 2111.691406 1206.230469 2147.148438 L 1217.640625 2172.890625 C 1226.109375 2189.484375 1236.289062 2204.945312 1248.171875 2219.273438 C 1260.050781 2233.597656 1273.640625 2246.789062 1288.949219 2258.847656 C 1290.898438 2258.746094 1291.320312 2257.34375 1290.191406 2254.636719 C 1276.488281 2226.671875 1267.769531 2206.613281 1264.019531 2194.460938 C 1258.75 2176.773438 1256.078125 2162.632812 1255.988281 2152.039062 C 1256.511719 2101.730469 1264.648438 2051.847656 1280.421875 2002.398438 C 1292.109375 1963.609375 1308.289062 1927.5 1328.980469 1894.058594 L 1335 1885.039062 C 1390.75 1819.699219 1429.488281 1772.351562 1451.210938 1742.96875 C 1461.300781 1730.429688 1472.601562 1711.808594 1485.109375 1687.078125 C 1497.671875 1660.460938 1506.710938 1637.660156 1512.21875 1618.640625 L 1512.210938 1618.640625 L 1525.039062 1611.878906 C 1571.320312 1592.570312 1600.828125 1582.46875 1613.570312 1581.558594 C 1625.390625 1580.871094 1636.921875 1580.558594 1648.171875 1580.628906 C 1702.621094 1580.96875 1750.460938 1590.160156 1791.691406 1608.210938 C 1781.691406 1601 1773.988281 1594.019531 1768.570312 1587.269531 C 1725.601562 1527.691406 1697.21875 1492.589844 1683.421875 1481.980469 C 1664.019531 1465.210938 1636.070312 1449.589844 1599.589844 1435.109375 L 1599.601562 1435.109375 C 1615.648438 1441.25 1634.171875 1444.378906 1655.160156 1444.511719 C 1673 1444.621094 1692.640625 1442.558594 1714.050781 1438.328125 C 1691.488281 1435.5 1670.789062 1427.890625 1651.941406 1415.519531 C 1636.878906 1407.011719 1605.550781 1380.328125 1557.941406 1335.46875 C 1546.351562 1325.980469 1532.261719 1316.46875 1515.679688 1306.929688 C 1496.539062 1296.488281 1466.238281 1286.71875 1424.808594 1277.621094 C 1466.550781 1267.421875 1497.910156 1255.25 1518.871094 1241.089844 L 1518.859375 1241.089844 C 1490.519531 1243.230469 1464.03125 1244.21875 1439.378906 1244.070312 C 1421.859375 1243.960938 1405.28125 1243.269531 1389.628906 1242.011719 C 1389.398438 1242.019531 1389.148438 1242.019531 1388.890625 1242.019531 C 1376.089844 1241.941406 1329.769531 1232 1249.898438 1212.191406 C 1243.300781 1211.429688 1234.890625 1211.011719 1224.679688 1210.949219 C 1212.75 1210.871094 1198.351562 1211.28125 1181.488281 1212.171875 C 1176.25 1211.488281 1180.25 1202.238281 1193.480469 1184.410156 C 1103.160156 1217.449219 1039.480469 1235.191406 1002.449219 1237.640625 C 1020.179688 1214.929688 1047.289062 1191.488281 1083.800781 1167.328125 C 1154.128906 1124.558594 1214.429688 1093.238281 1264.699219 1073.371094 L 1264.691406 1073.371094 C 1153.109375 1093.46875 1062.769531 1122.761719 993.664062 1161.21875 C 1010.550781 1114.621094 1020.230469 1082.351562 1022.710938 1064.398438 Z M 1668.460938 1879.339844 C 1666.210938 1879.320312 1664.070312 1879.398438 1662.03125 1879.558594 L 1652.480469 1879.691406 C 1626.628906 1880.539062 1597.878906 1885.421875 1566.230469 1894.320312 C 1554.359375 1897.820312 1526.339844 1912.519531 1482.148438 1938.421875 C 1412.878906 1985.671875 1367.988281 2036.351562 1347.480469 2090.460938 C 1337.300781 2114.265625 1330.199219 2138.230469 1326.191406 2162.355469 C 1322.449219 2190.8125 1321.238281 2210.761719 1322.558594 2222.210938 C 1323.328125 2236.5625 1325.988281 2252.535156 1330.539062 2270.128906 C 1359.089844 2343.609375 1376.351562 2397.351562 1382.328125 2431.359375 C 1386.058594 2450.210938 1387.949219 2471.683594 1388.011719 2495.777344 C 1388.230469 2517.121094 1385.148438 2540.066406 1378.78125 2564.617188 C 1378.730469 2566.035156 1379.269531 2566.839844 1380.398438 2567.035156 C 1393.699219 2558.511719 1408.820312 2539.269531 1425.738281 2509.300781 C 1434.378906 2493.144531 1441.511719 2471.144531 1447.140625 2443.308594 C 1449.859375 2428.382812 1450.890625 2412.457031 1450.210938 2395.527344 C 1441.230469 2320.179688 1437.269531 2270.957031 1438.359375 2247.863281 C 1438.519531 2208.394531 1446.730469 2172.871094 1462.988281 2141.296875 C 1474.078125 2125.003906 1485.691406 2112.347656 1497.808594 2103.332031 C 1512.828125 2093.875 1522.128906 2089.160156 1525.699219 2089.179688 C 1525.789062 2089.179688 1525.871094 2089.183594 1525.941406 2089.191406 C 1534.75 2087.386719 1542.28125 2086.503906 1548.53125 2086.542969 C 1552.929688 2086.570312 1556.691406 2087.050781 1559.820312 2087.992188 C 1561.191406 2088.25 1562.558594 2088.546875 1563.929688 2088.875 L 1580.929688 2100.097656 C 1620.558594 2131.722656 1614.660156 2176.992188 1563.210938 2235.910156 C 1624.691406 2214.617188 1665.21875 2183.859375 1684.820312 2143.640625 C 1690.25 2134.199219 1692.878906 2120.136719 1692.71875 2101.449219 L 1690.320312 2086.105469 C 1676.289062 2045.164062 1669.21875 2022.996094 1669.109375 2019.605469 C 1666.359375 2006.730469 1666.589844 1995.980469 1669.800781 1987.351562 C 1671.371094 1983.359375 1673.679688 1979.339844 1676.738281 1975.320312 C 1685.679688 1965.25 1691.929688 1959.191406 1695.488281 1957.160156 C 1696.070312 1954.53125 1719.578125 1940.898438 1766.03125 1916.25 C 1754.460938 1905.5 1741.179688 1897.109375 1726.199219 1891.078125 C 1702.429688 1883.339844 1683.191406 1879.429688 1668.460938 1879.339844 Z M 1668.460938 1879.339844 "/>
<g clip-path="url(#clip-0)">
<g clip-path="url(#clip-1)">
<g clip-path="url(#clip-2)">
<path fill-rule="nonzero" fill="url(#linear-pattern-0)" d="M 391.101562 1537.261719 L 391.101562 1864.058594 L 746.464844 1864.058594 L 746.464844 1537.261719 Z M 391.101562 1537.261719 "/>
</g>
</g>
</g>
</svg>
